# AST/ASF file generated using VICON BodyLanguage
# -----------------------------------------------
:version 1.10
:name VICON
:units
  mass 1.0
  length 0.45
  angle deg
:documentation
   .ast/.asf automatically generated from VICON data using
   VICON BodyBuilder and BodyLanguage model FoxedUp or BRILLIANT.MOD
:root
   order TX TY TZ RX RY RZ
   axis XYZ
   position 0 0 0  
   orientation 0 0 0 
:bonedata
  begin
     id 1 
     name lhipjoint
     direction 0.584852 -0.759097 0.285867 
     length 2.43633 
     axis 0 0 0  XYZ
  end
  begin
     id 2 
     name lfemur
     direction 0.34202 -0.939693 0  
     length 7.14704  
     axis 0 0 20  XYZ
    dof rx ry rz
    limits (-160.0 20.0)
           (-70.0 70.0)
           (-60.0 70.0)
  end
  begin
     id 3 
     name ltibia
     direction 0.342022 -0.939692 0   
     length 7.68483   
     axis 0 0 20   XYZ
    dof rx
    limits (-10.0 170.0)
  end
  begin
     id 4 
     name lfoot
     direction 0.0999605 -0.274639 0.956337   
     length 2.40452   
     axis -90 7.62852e-016 20   XYZ
    dof rx rz
    limits (-45.0 90.0)
           (-70.0 20.0)
  end
  begin
     id 5 
     name ltoes
     direction 1.53468e-011 -4.21881e-011 1   
     length 1.19837   
     axis -90 7.62852e-016 20   XYZ
    dof rx
    limits (-90.0 20.0)
  end
  begin
     id 6 
     name rhipjoint
     direction -0.569886 -0.769002 0.289597   
     length 2.40495  
     axis 0 0 0  XYZ 
  end
  begin
     id 7 
     name rfemur
     direction -0.34202 -0.939693 0   
     length 7.45086   
     axis 0 0 -20   XYZ
    dof rx ry rz
    limits (-160.0 20.0)
           (-70.0 70.0)
           (-70.0 60.0)
  end
  begin
     id 8 
     name rtibia
     direction -0.34202 -0.939693 0   
     length 7.76831   
     axis 0 0 -20   XYZ
    dof rx
    limits (-10.0 170.0)
 end
 begin
     id 9 
     name rfoot
     direction -0.0798572 -0.219406 0.97236   
     length 2.35911  
     axis -90 -7.62852e-016 -20   XYZ
    dof rx rz
    limits (-45.0 90.0)
           (-20.0 70.0)
  end
  begin
     id 10 
     name rtoes
     direction -1.53469e-011 -4.21728e-011 1   
     length 1.18261   
     axis -90 -7.62852e-016 -20   XYZ
    dof rx
    limits (-90.0 20.0)
  end
  begin
     id 11 
     name lowerback
     direction 0.0242088 0.999437 0.0232389   
     length 2.1561   
     axis 0 0 0   XYZ
    dof rx ry rz
    limits (-20.0 45.0)
           (-30.0 30.0)
           (-30.0 30.0)
  end
  begin
     id 12 
     name upperback
     direction -0.0356893 0.999013 -0.0264323   
     length 2.14431   
     axis 0 0 0   XYZ
    dof rx ry rz
    limits (-20.0 45.0)
           (-30.0 30.0)
           (-30.0 30.0)
  end
  begin
     id 13 
     name thorax
     direction -0.0472163 0.998194 -0.0371284   
     length 2.16169   
     axis 0 0 0   XYZ
    dof rx ry rz
    limits (-20.0 45.0)
           (-30.0 30.0)
           (-30.0 30.0)
  end
  begin
     id 14 
     name lowerneck
     direction 0.00863244 0.999921 0.00911972   
     length 1.58651   
     axis 0 0 0   XYZ
    dof rx ry rz
    limits (-20.0 45.0)
           (-30.0 30.0)
           (-30.0 30.0)
  end
  begin
     id 15 
     name upperneck
     direction 0.149523 0.979068 -0.138086   
     length 1.57486   
     axis 0 0 0   XYZ
    dof rx ry rz
    limits (-20.0 45.0)
           (-30.0 30.0)
           (-30.0 30.0)
  end
  begin
     id 16
     name head
     direction 0.0445219 0.997708 -0.0509576  
     length 1.6019  
     axis 0 0 0   XYZ
    dof rx ry rz
    limits (-20.0 45.0)
           (-30.0 30.0)
           (-30.0 30.0)
  end
  begin
     id 17 
     name lclavicle
     direction 0.911271 0.381667 -0.154644  
     length 3.80848  
     axis 0 0 0   XYZ
    dof ry rz
    limits (-20.0 10.0)
           (0.0 20.0)
  end
  begin
     id 18 
     name lhumerus
     direction 1 -4.49003e-011 2.1308e-027   
     length 5.19069   
     axis 180 -30 -90   XYZ
    dof rx ry rz
    limits (-60.0 90.0)
           (-90.0 90.0)
           (-90.0 90.0)
  end
  begin
     id 19
     name lradius
     direction 1 -4.48914e-011 4.01554e-027   
     length 3.30016   
     axis 180 -30 -90   XYZ
    dof rx
    limits (-10.0 170.0)
  end
  begin
     id 20
     name lwrist
     direction 1 -4.49003e-011 1.1934e-026   
     length 1.65008   
     axis -8.46377e-015 90 90   XYZ
    dof ry
    limits (-180.0 0.0)
 end
  begin
     id 21 
     name lhand
     direction 1 -4.49034e-011 2.38659e-026   
     length 0.707698   
     axis -1.52313e-014 90 90   XYZ
    dof rx rz
    limits (-90.0 90.0)
           (-45.0 45.0)
  end
  begin
     id 22 
     name lfingers
     direction 1 -4.48691e-011 4.77775e-026   
     length 0.570564   
     axis -3.04623e-014 90 90   XYZ
    dof rx
    limits (0.0 90.0)
  end
  begin
     id 23
     name lthumb
     direction 0.707107 -6.34832e-011 0.707107   
     length 0.819219   
     axis -90 45 -1.62303e-014   XYZ
    dof rx rz
    limits (-45.0 45.0)
           (-45.0 45.0)
  end
  begin
     id 24 
     name rclavicle
     direction -0.815579 0.573708 -0.0754329   
     length 3.54371  
     axis 0 0 0   XYZ 
    dof ry rz
    limits (-10.0 20.0)
           (-20.0 0.0)
  end
  begin
     id 25 
     name rhumerus
     direction -1 -4.48956e-011 3.05351e-028  
     length 5.23924   
     axis 180 30 90   XYZ
    dof rx ry rz
    limits (-90.0 60.0)
           (-90.0 90.0)
           (-90.0 90.0)
  end
  begin
     id 26 
     name rradius
     direction -1 -4.49013e-011 3.53849e-027   
     length 3.32953   
     axis 180 30 90   XYZ
    dof rx
    limits (-10.0 170.0)
  end
  begin
     id 27 
     name rwrist
     direction -1 -4.48901e-011 1.19374e-026   
     length 1.66477   
     axis -8.46377e-015 -90 -90   XYZ
    dof ry
    limits (-180.0 0.0)
  end
  begin
     id 28
     name rhand
     direction -1 -4.48877e-011 2.38764e-026   
     length 0.607414   
     axis -1.52313e-014 -90 -90   XYZ
    dof rx rz
    limits (-90.0 90.0)
           (-45.0 45.0)
  end
  begin
     id 29
     name rfingers
     direction -1 -4.48882e-011 4.77521e-026   
     length 0.489712   
     axis -3.04623e-014 -90 -90   XYZ
    dof rx
    limits (0.0 90.0)
  end
  begin
     id 30
     name rthumb
     direction -0.707107 -6.34974e-011 0.707107   
     length 0.703132   
     axis -90 -45 1.62303e-014   XYZ
    dof rx rz
    limits (-45.0 45.0)
           (-45.0 45.0)
  end
:hierarchy
  begin
    root lhipjoint rhipjoint lowerback
    lhipjoint lfemur
    lfemur ltibia
    ltibia lfoot
    lfoot ltoes
    rhipjoint rfemur
    rfemur rtibia
    rtibia rfoot
    rfoot rtoes
    lowerback upperback
    upperback thorax
    thorax lowerneck lclavicle rclavicle
    lowerneck upperneck
    upperneck head
    lclavicle lhumerus
    lhumerus lradius
    lradius lwrist
    lwrist lhand lthumb
    lhand lfingers
    rclavicle rhumerus
    rhumerus rradius
    rradius rwrist
    rwrist rhand rthumb
    rhand rfingers
  end

#!OML:ASF E:\VariousWalksJay\Project 1\Capture day 1\Session 1\Actor2.ASF
:FULLY-SPECIFIED
:DEGREES
224
root 11.8795 17.1474 5.51338 -16.3959 -73.3981 23.0101
lowerback 6.50159 -2.60466 1.58129
upperback 8.40822 -3.63379 -2.50307
thorax 4.84694 -1.77058 -3.41236
lowerneck -5.75138 -3.53899 -5.67134
upperneck 9.28253 -5.00196 7.31737
head 4.03546 -2.32646 2.89543
rclavicle 5.72997e-014 -3.76697e-014
rhumerus -73.8796 25.7907 -133.925
rradius 67.8357
rwrist 18.8118
rhand -10.8944 12.9835
rfingers 7.12502
rthumb 15.1222 -16.4441
lclavicle 5.72997e-014 -3.76697e-014
lhumerus -86.4254 -37.6866 142.864
lradius 70.998
lwrist -2.23632
lhand -0.428825 3.12687
lfingers 7.12502
lthumb 25.1796 31.486
rfemur -88.2949 -1.2412 41.9087
rtibia 120.809
rfoot -13.1857 17.9383
rtoes -35
lfemur -16.0361 14.3691 -33.7331
ltibia 25.7139
lfoot -14.8736 -14.4826
ltoes 12.0641
225
root 11.8734 17.1357 5.51998 -17.9251 -73.4677 24.8028
lowerback 6.419 -2.56978 1.20327
upperback 8.34276 -3.59293 -2.64793
thorax 4.83761 -1.76641 -3.35511
lowerneck -5.75221 -3.53282 -5.66185
upperneck 9.24719 -4.99814 7.36923
head 4.02568 -2.32215 2.91016
rclavicle 5.22804e-014 3.27995e-015
rhumerus -73.8132 25.7543 -133.849
rradius 67.8027
rwrist 19.1756
rhand -10.9686 13.1343
rfingers 7.12502
rthumb 15.0508 -16.2986
lclavicle 5.22804e-014 3.27995e-015
lhumerus -86.3973 -37.6902 142.804
lradius 70.9623
lwrist -2.44968
lhand -0.401168 2.90634
lfingers 7.12502
lthumb 25.2061 31.2617
rfemur -87.9859 -1.67015 41.3844
rtibia 120.821
rfoot -13.0662 18.0393
rtoes -34.8731
lfemur -16.1983 14.3898 -34.3159
ltibia 25.6519
lfoot -14.973 -14.2631
ltoes 11.9382
226
root 11.8664 17.1256 5.52249 -19.0319 -73.5254 26.222
lowerback 6.27802 -2.55321 0.892373
upperback 8.26328 -3.57358 -2.75658
thorax 4.84327 -1.76939 -3.29945
lowerneck -5.75663 -3.52365 -5.65867
upperneck 9.20277 -4.98902 7.42287
head 4.0136 -2.31534 2.92674
rclavicle -4.2043e-014 2.48481e-014
rhumerus -73.739 25.7102 -133.774
rradius 67.7561
rwrist 19.5243
rhand -11.0308 13.3234
rfingers 7.12502
rthumb 14.9908 -16.114
lclavicle -4.2043e-014 2.48481e-014
lhumerus -86.38 -37.7012 142.75
lradius 70.9235
lwrist -2.65166
lhand -0.355376 2.67997
lfingers 7.12502
lthumb 25.2499 31.0292
rfemur -87.6757 -2.1171 40.9859
rtibia 120.712
rfoot -12.9109 18.1207
rtoes -34.6656
lfemur -16.4699 14.4021 -34.7938
ltibia 25.6551
lfoot -15.0852 -14.0785
ltoes 11.7842
227
root 11.8596 17.115 5.52364 -20.1036 -73.5881 27.5968
lowerback 6.14708 -2.53991 0.588141
upperback 8.18838 -3.5583 -2.86185
thorax 4.84809 -1.77424 -3.24353
lowerneck -5.7596 -3.51305 -5.65704
upperneck 9.14414 -4.97672 7.47518
head 3.99678 -2.3072 2.94342
rclavicle -2.06736e-014 -1.82882e-014
rhumerus -73.6571 25.658 -133.699
rradius 67.697
rwrist 19.8336
rhand -11.0595 13.5533
rfingers 7.12502
rthumb 14.9631 -15.8861
lclavicle -2.06736e-014 -1.82882e-014
lhumerus -86.3781 -37.7211 142.707
lradius 70.8857
lwrist -2.83635
lhand -0.288541 2.47774
lfingers 7.12502
lthumb 25.314 30.8179
rfemur -87.3209 -2.60037 40.6248
rtibia 120.512
rfoot -12.6668 18.2354
rtoes -34.3245
lfemur -16.7668 14.426 -35.2457
ltibia 25.7194
lfoot -15.2358 -13.894
ltoes 11.5988
228
root 11.8525 17.1033 5.52372 -21.1949 -73.6526 28.9706
lowerback 6.03327 -2.53003 0.277431
upperback 8.12335 -3.54799 -2.96864
thorax 4.85412 -1.7821 -3.185
lowerneck -5.76375 -3.49807 -5.66153
upperneck 9.07869 -4.95772 7.53086
head 3.97787 -2.29585 2.96252
rclavicle -5.49143e-015 2.38542e-014
rhumerus -73.5708 25.6038 -133.63
rradius 67.6273
rwrist 20.076
rhand -11.0471 13.8128
rfingers 7.12502
rthumb 14.9751 -15.6258
lclavicle -5.49143e-015 2.38542e-014
lhumerus -86.3893 -37.7469 142.675
lradius 70.8508
lwrist -3.00183
lhand -0.200094 2.31012
lfingers 7.12502
lthumb 25.3987 30.6383
rfemur -86.914 -3.12812 40.2917
rtibia 120.226
rfoot -12.2651 18.4133
rtoes -33.6575
lfemur -17.0721 14.4877 -35.6834
ltibia 25.8406
lfoot -15.418 -13.7341
ltoes 11.3932
